<!DOCTYPE svg PUBLIC "-//W3C//DTD SVG 1.1//EN" "http://www.w3.org/Graphics/SVG/1.1/DTD/svg11.dtd">
<!-- Uploaded to: SVG Repo, www.svgrepo.com, Transformed by: SVG Repo Mixer Tools -->
<svg height="64px" width="64px" version="1.1" id="Capa_1" xmlns="http://www.w3.org/2000/svg" xmlns:xlink="http://www.w3.org/1999/xlink" viewBox="0 0 478.347 478.347" xml:space="preserve" fill="#000000">
<g id="SVGRepo_bgCarrier" stroke-width="0"/>
<g id="SVGRepo_tracerCarrier" stroke-linecap="round" stroke-linejoin="round"/>
<g id="SVGRepo_iconCarrier"> <g> <g> <g> <path style="fill:#d33109;" d="M305.958,0H172.39C125.962,0,88.19,37.781,88.19,84.209v133.568 c0,35.495,22.11,65.861,53.247,78.23l97.731,182.341l97.741-182.341c31.147-12.369,53.247-42.735,53.247-78.23V84.209 C390.157,37.781,352.395,0,305.958,0z M361.13,217.777c0,30.405-24.748,55.162-55.162,55.162H172.399 c-30.424,0-55.162-24.748-55.162-55.162V84.209c0-30.415,24.748-55.172,55.162-55.172h133.558 c30.424,0,55.162,24.758,55.162,55.172L361.13,217.777L361.13,217.777z"/> </g> </g> </g> </g>
</svg>