<!DOCTYPE svg PUBLIC "-//W3C//DTD SVG 1.1//EN" "http://www.w3.org/Graphics/SVG/1.1/DTD/svg11.dtd">
<!-- Uploaded to: SVG Repo, www.svgrepo.com, Transformed by: SVG Repo Mixer Tools -->
<svg height="64px" width="64px" version="1.1" id="Capa_1" xmlns="http://www.w3.org/2000/svg" xmlns:xlink="http://www.w3.org/1999/xlink" viewBox="0 0 722.98 722.98" xml:space="preserve" fill="#000000">
<g id="SVGRepo_bgCarrier" stroke-width="0"/>
<g id="SVGRepo_tracerCarrier" stroke-linecap="round" stroke-linejoin="round"/>
<g id="SVGRepo_iconCarrier"> <g> <g> <g> <g> <path style="fill:#109e33;" d="M361.495,0C235.906,0,134.077,101.829,134.077,227.417 c-1.131,125.589,227.417,495.565,227.417,495.565S588.91,354.137,588.91,227.417C588.911,101.829,487.083,0,361.495,0z M361.495,406.183c-101.829,0-184.423-82.594-184.423-184.422S259.666,37.337,361.495,37.337 c101.828,0,184.422,82.594,184.422,184.423C545.917,322.457,463.323,406.183,361.495,406.183z"/> <polygon style="fill:#109e33;" points="353.574,93.909 353.574,183.292 495.003,139.166 "/> <path style="fill:#109e33;" d="M342.261,341.691V93.909h-26.023v247.783c-9.051,2.263-15.84,5.657-15.84,11.314 c0,6.789,12.445,12.445,28.286,12.445c15.84,0,28.286-5.657,28.286-12.445C356.969,348.48,351.312,343.954,342.261,341.691z"/> </g> </g> </g> </g> </g>
</svg>