<!DOCTYPE svg PUBLIC "-//W3C//DTD SVG 1.1//EN" "http://www.w3.org/Graphics/SVG/1.1/DTD/svg11.dtd">
<!-- Uploaded to: SVG Repo, www.svgrepo.com, Transformed by: SVG Repo Mixer Tools -->
<svg height="64px" width="64px" version="1.1" id="Capa_1" xmlns="http://www.w3.org/2000/svg" xmlns:xlink="http://www.w3.org/1999/xlink" viewBox="0 0 684.234 684.234" xml:space="preserve" fill="#000000">
<g id="SVGRepo_bgCarrier" stroke-width="0"/>
<g id="SVGRepo_tracerCarrier" stroke-linecap="round" stroke-linejoin="round"/>
<g id="SVGRepo_iconCarrier"> <g> <g> <g> <path style="fill:#963c3c;" d="M342.137,48.753c91.976,0,166.728,74.82,166.728,166.796s-74.752,166.777-166.728,166.777 c-92.006,0-166.796-74.8-166.796-166.777S250.131,48.753,342.137,48.753 M342.137,0C223.058,0,126.538,96.5,126.538,215.549 c0,119.04,215.598,468.685,215.598,468.685s215.559-349.645,215.559-468.685C557.705,96.5,461.176,0,342.137,0z M405.75,175.365 c-15.925,0-28.881,12.897-28.881,28.832l3.283,98.464c0,15.955,9.672,28.871,25.598,28.871c15.935,0,25.647-12.916,25.647-28.871 l3.234-98.464C434.631,188.271,421.685,175.365,405.75,175.365z M278.484,175.365c-15.935,0-28.861,12.897-28.861,28.832 l3.205,98.464c0,15.955,9.721,28.871,25.656,28.871c15.945,0,25.617-12.916,25.617-28.871l3.253-98.464 C307.355,188.271,294.429,175.365,278.484,175.365z M288.557,150.636l98.395,3.283c15.955,0,28.871-12.936,28.871-28.89 s-12.916-28.871-28.871-28.871l-98.395,6.507c-16.004,0-28.91,12.916-28.91,28.871 C259.647,147.471,272.553,150.636,288.557,150.636z"/> </g> </g> </g> </g>
</svg>