<?xml version="1.0" encoding="utf-8"?>
<svg viewBox="132.088 50.785 240.885 382.321" xmlns="http://www.w3.org/2000/svg">
  <g id="SVGRepo_iconCarrier" transform="matrix(0.558758, 0, 0, 0.558758, 61.369915, 50.784622)" style="">
    <g>
      <g>
        <g>
          <path style="fill:#a1177c;" d="M 342.122 0 C 223.063 0 126.563 96.49 126.563 215.549 C 126.563 334.598 342.122 684.234 342.122 684.234 C 342.122 684.234 557.671 334.599 557.671 215.549 C 557.681 96.49 461.162 0 342.122 0 Z M 342.122 382.326 C 250.146 382.326 175.345 307.516 175.345 215.549 C 175.345 123.582 250.145 48.763 342.122 48.763 C 434.079 48.763 508.899 123.583 508.899 215.549 C 508.899 307.515 434.079 382.326 342.122 382.326 Z"/>
        </g>
      </g>
    </g>
  </g>
  <g id="g-5" transform="matrix(3.057908, 0, 0, 3.057908, 176.717911, 76.809669)" style="">
    <path d="M25 4.300781L18.902344 13L15 13L15 19C15 19.523438 15.191406 20.054688 15.566406 20.433594C15.945313 20.808594 16.476563 21 17 21L17 26L16 26L16 24L10 24L10 26L9 26L9 24L3 24L3 30C3 30.523438 3.191406 31.054688 3.570313 31.433594C3.945313 31.808594 4.476563 32 5 32L5 46L20 46L20 40C20 37.199219 22.199219 35 25 35C27.800781 35 30 37.199219 30 40L30 46L45 46L45 32C45.523438 32 46.054688 31.808594 46.433594 31.433594C46.808594 31.054688 47 30.523438 47 30L47 24L41 24L41 26L40 26L40 24L34 24L34 26L33 26L33 21C33.523438 21 34.054688 20.808594 34.433594 20.433594C34.808594 20.054688 35 19.523438 35 19L35 13L31.097656 13 Z M 17 15L19 15L19 17L24 17L24 15L26 15L26 17L31 17L31 15L33 15L33 19L17 19 Z M 5 26L7 26L7 28L12 28L12 26L14 26L14 28L19 28L19 26L21 26L21 30L5 30 Z M 29 26L31 26L31 28L36 28L36 26L38 26L38 28L43 28L43 26L45 26L45 30L29 30 Z M 12 35C12.601563 35 13 35.398438 13 36L13 39L11 39L11 36C11 35.398438 11.398438 35 12 35 Z M 37 35C37.601563 35 38 35.398438 38 36L38 39L36 39L36 36C36 35.398438 36.398438 35 37 35Z" fill="#a1177c"/>
  </g>
</svg>