<?xml version="1.0" encoding="utf-8"?>
<svg viewBox="132.088 50.785 240.885 382.321" xmlns="http://www.w3.org/2000/svg">
  <g id="SVGRepo_iconCarrier" transform="matrix(0.558758, 0, 0, 0.558758, 61.369915, 50.784622)" style="">
    <g>
      <g>
        <g>
          <path style="fill: rgb(179, 0, 0);" d="M 342.122 0 C 223.063 0 126.563 96.49 126.563 215.549 C 126.563 334.598 342.122 684.234 342.122 684.234 C 342.122 684.234 557.671 334.599 557.671 215.549 C 557.681 96.49 461.162 0 342.122 0 Z M 342.122 382.326 C 250.146 382.326 175.345 307.516 175.345 215.549 C 175.345 123.582 250.145 48.763 342.122 48.763 C 434.079 48.763 508.899 123.583 508.899 215.549 C 508.899 307.515 434.079 382.326 342.122 382.326 Z"/>
        </g>
      </g>
    </g>
  </g>
  <g id="g-17" transform="matrix(0.242041, 0, 0, 0.242041, 195.432144, 104.718651)" style="">
    <g>
      <g>
        <path d="M113.256,274.127h-0.13c-5.765,0-10.439,4.673-10.439,10.439s4.673,10.439,10.439,10.439h0.13 c5.765,0,10.439-4.673,10.439-10.439S119.021,274.127,113.256,274.127z" style="paint-order: fill; fill: rgb(179, 0, 0);"/>
      </g>
    </g>
    <g>
      <g>
        <path d="M308.583,274.127h-0.13c-5.765,0-10.439,4.673-10.439,10.439s4.673,10.439,10.439,10.439h0.13 c5.765,0,10.439-4.673,10.439-10.439S314.348,274.127,308.583,274.127z" style="paint-order: fill; fill: rgb(179, 0, 0);"/>
      </g>
    </g>
    <g>
      <g>
        <path d="M336.503,134.229h-0.13c-5.765,0-10.439,4.673-10.439,10.439s4.673,10.439,10.439,10.439h0.13 c5.765,0,10.439-4.673,10.439-10.439S342.268,134.229,336.503,134.229z" style="paint-order: fill; fill: rgb(179, 0, 0);"/>
      </g>
    </g>
    <g>
      <g>
        <path d="M500.537,450.158h-57.972v-97.761C481.875,346.074,512,311.98,512,270.982c0-25.212-11.338-48.589-30.737-64.177 c2.376-6.251,3.609-12.913,3.609-19.662c0-30.55-24.894-55.404-55.493-55.404c-13.879,0-26.797,4.992-36.886,13.159v-31.875h18.79 c5.765,0,10.439-4.673,10.439-10.439V51.402c0-5.765-4.673-10.439-10.439-10.439H10.439C4.673,40.964,0,45.637,0,51.402v51.182 c0,5.765,4.673,10.439,10.439,10.439h18.789v308.941h-8.351c-5.765,0-10.439,4.673-10.439,10.439v28.195 c0,5.765,4.673,10.439,10.439,10.439h145.81c5.765,0,10.439-4.673,10.439-10.439v-28.195c0-5.765-4.673-10.439-10.439-10.439 h-9.089V253.837c0-29.258,23.893-53.062,53.261-53.062c25.302,0,46.525,17.674,51.921,41.276c0.018,1.284,0.27,2.508,0.712,3.64 c0.412,2.657,0.628,5.376,0.628,8.145v168.128h-9.121c-5.765,0-10.439,4.673-10.439,10.439v28.195 c0,5.765,4.673,10.439,10.439,10.439h245.536c5.765,0,10.439-4.673,10.439-10.439S506.303,450.158,500.537,450.158z M20.877,92.145V61.841h379.966v30.304h-18.79H39.667H20.877z M82.748,274.127H50.105v-21.786h86.654 c-0.01,0.499-0.038,0.994-0.038,1.496v168.128H50.105v-0.001V295.004h32.643c5.765,0,10.439-4.673,10.439-10.439 S88.513,274.127,82.748,274.127z M156.248,450.158H31.316v-7.318h124.933V450.158z M210.86,179.898 c-33.063,0-61.132,21.7-70.66,51.566H50.105v-76.357h255.888c5.765,0,10.439-4.673,10.439-10.439s-4.673-10.439-10.439-10.439 H50.105v-21.206h321.51v118.441H281.52C271.992,201.598,243.924,179.898,210.86,179.898z M338.96,295.004h32.655v126.959h-86.617 V253.837c0-0.502-0.027-0.997-0.038-1.496h86.654v21.786H338.96c-5.765,0-10.439,4.673-10.439,10.439 S333.195,295.004,338.96,295.004z M390.438,450.158H265.44v-7.318h124.998V450.158z M421.688,450.158h-10.374v-17.756 c0-5.765-4.673-10.439-10.439-10.439h-8.383v-77.193c9.107,4.528,19.02,7.361,29.196,8.318V450.158z M471.43,261.138 c-4.076-4.077-10.686-4.076-14.762,0l-14.105,14.104v-30.726c0-5.765-4.673-10.439-10.439-10.439s-10.439,4.673-10.439,10.439 v2.982l-0.86-0.86c-4.076-4.075-10.686-4.075-14.763,0c-4.076,4.076-4.076,10.686,0,14.763l15.624,15.623v55.088 c-10.609-1.295-20.553-5.28-29.196-11.729v-133.24c0.002-18.394,17.238-34.528,36.888-34.528 c19.087,0,34.616,15.489,34.616,34.527c0,6.234-1.687,12.346-4.878,17.673c-2.908,4.854-1.419,11.141,3.358,14.176 c17.939,11.395,28.648,30.831,28.648,51.991c0,29.451-20.828,54.127-48.557,60.171v-26.387l28.866-28.866 C475.507,271.824,475.508,265.215,471.43,261.138z" style="paint-order: fill; fill: rgb(179, 0, 0);"/>
      </g>
    </g>
  </g>
</svg>