<?xml version="1.0" encoding="utf-8"?>
<svg viewBox="132.088 50.785 240.885 382.321" xmlns="http://www.w3.org/2000/svg">
  <g id="SVGRepo_iconCarrier" transform="matrix(0.558758, 0, 0, 0.558758, 61.369915, 50.784622)" style="">
    <g>
      <g>
        <g>
          <path style="fill:#003b8f;" d="M 342.122 0 C 223.063 0 126.563 96.49 126.563 215.549 C 126.563 334.598 342.122 684.234 342.122 684.234 C 342.122 684.234 557.671 334.599 557.671 215.549 C 557.681 96.49 461.162 0 342.122 0 Z M 342.122 382.326 C 250.146 382.326 175.345 307.516 175.345 215.549 C 175.345 123.582 250.145 48.763 342.122 48.763 C 434.079 48.763 508.899 123.583 508.899 215.549 C 508.899 307.515 434.079 382.326 342.122 382.326 Z"/>
        </g>
      </g>
    </g>
  </g>
  <g id="g-3" transform="matrix(1, 0, 0, 1, 193.856812, 208.674713)">
    <title>monument_line</title>
    <g id="页面-1" stroke="none" stroke-width="1" fill="none" fill-rule="evenodd">
      <g id="Building" transform="translate(-768.000000, 0.000000)">
        <g id="monument_line" transform="translate(768.000000, 0.000000)">
          <path d="M24,0 L24,24 L0,24 L0,0 L24,0 Z M12.5934901,23.257841 L12.5819402,23.2595131 L12.5108777,23.2950439 L12.4918791,23.2987469 L12.4918791,23.2987469 L12.4767152,23.2950439 L12.4056548,23.2595131 C12.3958229,23.2563662 12.3870493,23.2590235 12.3821421,23.2649074 L12.3780323,23.275831 L12.360941,23.7031097 L12.3658947,23.7234994 L12.3769048,23.7357139 L12.4804777,23.8096931 L12.4953491,23.8136134 L12.4953491,23.8136134 L12.5071152,23.8096931 L12.6106902,23.7357139 L12.6232938,23.7196733 L12.6232938,23.7196733 L12.6266527,23.7031097 L12.609561,23.275831 C12.6075724,23.2657013 12.6010112,23.2592993 12.5934901,23.257841 L12.5934901,23.257841 Z M12.8583906,23.1452862 L12.8445485,23.1473072 L12.6598443,23.2396597 L12.6498822,23.2499052 L12.6498822,23.2499052 L12.6471943,23.2611114 L12.6650943,23.6906389 L12.6699349,23.7034178 L12.6699349,23.7034178 L12.678386,23.7104931 L12.8793402,23.8032389 C12.8914285,23.8068999 12.9022333,23.8029875 12.9078286,23.7952264 L12.9118235,23.7811639 L12.8776777,23.1665331 C12.8752882,23.1545897 12.8674102,23.1470016 12.8583906,23.1452862 L12.8583906,23.1452862 Z M12.1430473,23.1473072 C12.1332178,23.1423925 12.1221763,23.1452606 12.1156365,23.1525954 L12.1099173,23.1665331 L12.0757714,23.7811639 C12.0751323,23.7926639 12.0828099,23.8018602 12.0926481,23.8045676 L12.108256,23.8032389 L12.3092106,23.7104931 L12.3186497,23.7024347 L12.3186497,23.7024347 L12.3225043,23.6906389 L12.340401,23.2611114 L12.337245,23.2485176 L12.337245,23.2485176 L12.3277531,23.2396597 L12.1430473,23.1473072 Z" id="MingCute" fill-rule="nonzero"/>
          <path d="M 84.355 -9.29 L 84.355 -82.91 L 89.913 -94.025 C 91.863 -97.926 89.371 -102.583 85.043 -103.124 L 60.293 -106.218 C 59.649 -106.298 58.997 -106.298 58.353 -106.218 L 33.602 -103.124 C 29.275 -102.583 26.782 -97.926 28.732 -94.025 L 34.29 -82.91 L 34.29 -9.29 L 23.339 -9.29 C 19.018 -9.29 15.516 -5.788 15.516 -1.468 L 15.516 9.484 L 9.258 9.484 C 5.802 9.484 3 12.286 3 15.742 C 3 19.198 5.802 22 9.258 22 L 109.387 22 C 112.843 22 115.645 19.198 115.645 15.742 C 115.645 12.286 112.843 9.484 109.387 9.484 L 103.129 9.484 L 103.129 -1.468 C 103.129 -5.788 99.627 -9.29 95.306 -9.29 L 84.355 -9.29 Z M 59.323 -93.725 L 43.843 -91.79 L 45.485 -88.507 C 46.354 -86.769 46.806 -84.853 46.806 -82.91 L 46.806 -9.29 L 71.839 -9.29 L 71.839 -82.91 C 71.839 -84.853 72.291 -86.769 73.16 -88.507 L 74.802 -91.79 L 59.323 -93.725 Z M 90.613 9.484 L 90.613 3.226 L 28.032 3.226 L 28.032 9.484 L 90.613 9.484 Z" id="形状" fill="#003b8f" style=""/>
        </g>
      </g>
    </g>
  </g>
</svg>