<?xml version="1.0" encoding="utf-8"?>
<svg viewBox="132.088 50.785 240.885 382.321" xmlns="http://www.w3.org/2000/svg">
  <g id="SVGRepo_iconCarrier" transform="matrix(0.558758, 0, 0, 0.558758, 61.369915, 50.784622)" style="">
    <g>
      <g>
        <g>
          <path style="fill: rgb(204, 179, 15);" d="M 342.122 0 C 223.063 0 126.563 96.49 126.563 215.549 C 126.563 334.598 342.122 684.234 342.122 684.234 C 342.122 684.234 557.671 334.599 557.671 215.549 C 557.681 96.49 461.162 0 342.122 0 Z M 342.122 382.326 C 250.146 382.326 175.345 307.516 175.345 215.549 C 175.345 123.582 250.145 48.763 342.122 48.763 C 434.079 48.763 508.899 123.583 508.899 215.549 C 508.899 307.515 434.079 382.326 342.122 382.326 Z"/>
        </g>
      </g>
    </g>
  </g>
  <g id="g-19" transform="matrix(4.590702, 0, 0, 4.590702, 178.2715, 96.702385)" style="">
    <path class="stone_een" d="M17,15v4h-2v-4c0-0.551,0.449-1,1-1S17,14.449,17,15z M6.913,10h18.174l1.034-1.034 C26.684,8.403,27,7.64,27,6.844V3c0-0.552-0.448-1-1-1h-2c-0.552,0-1,0.448-1,1v1h-2V3c0-0.552-0.448-1-1-1h-2c-0.552,0-1,0.448-1,1 v1h-2V3c0-0.552-0.448-1-1-1h-2c-0.552,0-1,0.448-1,1v1H9V3c0-0.552-0.448-1-1-1H6C5.448,2,5,2.448,5,3v3.844 C5,7.64,5.316,8.403,5.879,8.966L6.913,10z M25.19,11l1.497,15.716C26.855,28.477,25.47,30,23.701,30H8.299 c-1.769,0-3.154-1.523-2.987-3.284L6.81,11H25.19z M18,15c0-1.105-0.895-2-2-2c-1.105,0-2,0.895-2,2v4c0,0.552,0.448,1,1,1h2 c0.552,0,1-0.448,1-1V15z" style="fill: rgb(204, 179, 15);"/>
  </g>
</svg>