<?xml version="1.0" encoding="utf-8"?>
<svg viewBox="132.088 50.785 240.885 382.321" xmlns="http://www.w3.org/2000/svg">
  <g id="SVGRepo_iconCarrier" transform="matrix(0.558758, 0, 0, 0.558758, 61.369915, 50.784622)" style="">
    <g>
      <g>
        <g>
          <path style="fill: rgb(37, 177, 105);" d="M 342.122 0 C 223.063 0 126.563 96.49 126.563 215.549 C 126.563 334.598 342.122 684.234 342.122 684.234 C 342.122 684.234 557.671 334.599 557.671 215.549 C 557.681 96.49 461.162 0 342.122 0 Z M 342.122 382.326 C 250.146 382.326 175.345 307.516 175.345 215.549 C 175.345 123.582 250.145 48.763 342.122 48.763 C 434.079 48.763 508.899 123.583 508.899 215.549 C 508.899 307.515 434.079 382.326 342.122 382.326 Z"/>
        </g>
      </g>
    </g>
  </g>
  <g id="g-13" transform="matrix(0.310434, 0, 0, 0.310434, 172.325119, 98.110443)" style="">
    <g>
      <g>
        <path style="fill:#25b169;" d="M443.418,52.316v-6.999l-1.723-0.919c-15.558-8.21-39.887-13.315-63.492-13.315 c-5.926,0-11.681,0.309-17.159,0.951C351.28,20.541,329.927,2.796,309.833,0l-2.617,0.252l-2.601,5.381l2.13,1.593 c0.902,0.675,3.292,2.845,5.649,4.975c0.65,0.585,1.292,1.171,1.902,1.715c-40.18,16.168-28.027,77.1-27.913,77.701 c4.503,23.532,13.185,88.195-0.415,104.647c-1.951,2.374-4.268,3.512-7.064,3.512c-1.902,0-4.081-0.512-6.462-1.528 c-18.484-7.901-44.927-4.113-77.441,11.022c-0.285-0.098-0.585-0.187-0.902-0.333c-2.26-0.943-5.251-2.829-8.446-4.828 c-6.308-3.975-13.453-8.478-19.549-8.478c-3.487,0.024-6.04,0.187-7.348,2.195c-0.74,1.146-0.658,2.284-0.431,3.113l-0.13,0.154 l0.179,1.406c0.431,3.268,1.772,5.934,3.625,8.21c-7.056-2.926-12.331-5.714-12.437-5.771c-2.309-1.236-4.934-0.325-4.828-0.057 l-2.024,0.171l-0.74,1.878c-3.113,7.901,0.951,13.949,6.413,18.769c-3.235-0.455-6.519-0.569-9.519-0.024l-3.487,0.699 l-0.536,1.902c-1.845,6.592,2.195,10.575,6.544,13.453c-0.098,0.041-0.179,0.089-0.276,0.122l-2.357,1.13l0.325,1.431 c-25.134-4.211-46.463-6.332-63.452-6.332c-26.719,0-41.895,5.219-46.398,15.973l-0.26,4.349l0.569,0.837 c2.333,3.381,6.568,5.137,12.908,5.324c2.284,8.234,11.738,12.949,21.183,15.371v7.657l2.357,0.691 c1.951,0.545,4.186,1.284,6.609,2.073c8.592,2.812,19.273,6.3,28.986,6.3c2.512,0,4.853-0.236,6.999-0.715 c19.273-4.251,43.415-4.967,76.498-2.187v1.097l34.173,6.088v157.06c-0.593,0.406-1.057,0.74-1.333,0.951 c-2.747,2-3.325,5.828-1.333,8.543c2.024,2.764,5.853,3.308,8.592,1.357c2.902-2.122,7.039-3.885,8.112-3.284 c0.797,2.691,3.235,4.454,5.909,4.454c0.593,0,1.146-0.049,1.691-0.236c3.26-0.927,5.178-4.333,4.211-7.592 c-1.195-4.259-3.894-7.283-7.641-8.568c-1.926-0.667-8.185-0.74-10.136-0.52V304.179l12.526,2.999 c1.715-0.667,4.877-0.902,8.576-0.975v157.67h0.593c-0.829,1.894-0.715,4.186,0.61,6.015c2.024,2.707,5.869,3.251,8.592,1.284 c2.878-2.097,7.015-3.885,8.096-3.235c0.813,2.691,3.243,4.446,5.926,4.446c0.561,0,1.114-0.065,1.674-0.252 c3.251-0.878,5.154-4.308,4.227-7.576c-1.211-4.251-3.91-7.324-7.657-8.584c-3.195-1.097-10.876-0.642-13.973,0.325V308.276 l13.859,1.715l0.707-0.187c30.547-8.259,71.06-24.004,72.255-65.541c2.959-4.341,0.382-18.184-8.584-59.867 c-8.958-41.659-22.362-104.021-14.729-120.165L443.418,52.316z"/>
      </g>
    </g>
  </g>
</svg>