<!DOCTYPE svg PUBLIC "-//W3C//DTD SVG 1.1//EN" "http://www.w3.org/Graphics/SVG/1.1/DTD/svg11.dtd">
<!-- Uploaded to: SVG Repo, www.svgrepo.com, Transformed by: SVG Repo Mixer Tools -->
<svg height="64px" width="64px" version="1.1" id="Capa_1" xmlns="http://www.w3.org/2000/svg" xmlns:xlink="http://www.w3.org/1999/xlink" viewBox="0 0 377.763 377.763" xml:space="preserve" fill="#000000">
<g id="SVGRepo_bgCarrier" stroke-width="0"/>
<g id="SVGRepo_tracerCarrier" stroke-linecap="round" stroke-linejoin="round"/>
<g id="SVGRepo_iconCarrier"> <g> <g> <g> <path style="fill:#64aece;" d="M188.896,54.029c-48.265,0-87.345,39.1-87.345,87.345c0,48.235,39.081,87.316,87.345,87.316 c48.226,0,87.306-39.081,87.306-87.316C276.232,93.129,237.122,54.029,188.896,54.029z M190.098,68.235 c9.418,0,15.212,6.351,15.417,14.645c0,8.109-5.989,14.665-15.808,14.665c-9.282,0-15.241-6.556-15.241-14.665 C174.456,74.585,180.621,68.235,190.098,68.235z M214.152,203.415h-9.594v0.117h-29.35v-0.117H163.64v-16.287h11.568v-60.897 h-10.923v-17.039h10.923v-0.049h29.35v78.005h9.594V203.415z M42.432,0v292.9h92.142l54.293,84.864l54.312-84.864h92.152V0 H42.432z M188.896,245.7c-57.634,0-104.365-46.711-104.365-104.336c0-57.654,46.721-104.355,104.365-104.355 c57.615,0,104.336,46.701,104.336,104.355C293.232,198.989,246.54,245.7,188.896,245.7z"/> </g> </g> </g> </g>
</svg>